<svg width="200" height="201" viewBox="0 0 200 201" fill="none" xmlns="http://www.w3.org/2000/svg">
<g clip-path="url(#clip0_5_122)">
<path d="M83.4006 102.847V101.117H85.9026C86.2808 101.117 86.5862 101.056 86.8186 100.933C87.0556 100.81 87.2288 100.641 87.3381 100.427C87.4475 100.213 87.5022 99.9665 87.5022 99.6885C87.5022 99.4105 87.4475 99.1507 87.3381 98.9092C87.2288 98.6631 87.0556 98.4671 86.8186 98.3213C86.5862 98.1709 86.2808 98.0957 85.9026 98.0957H84.1389V106.312H81.9856V96.3594H85.9026C86.691 96.3594 87.3678 96.5029 87.9329 96.79C88.498 97.0771 88.9309 97.4714 89.2317 97.9727C89.5325 98.4694 89.6829 99.0368 89.6829 99.6748C89.6829 100.322 89.5325 100.882 89.2317 101.356C88.9309 101.83 88.498 102.197 87.9329 102.457C87.3678 102.717 86.691 102.847 85.9026 102.847H83.4006ZM97.51 106.312H92.5129V104.583H97.51V106.312ZM93.1965 106.312H91.05V96.3594H93.1965V106.312ZM100.258 106.312H97.968L101.666 96.3594H103.115L102.91 98.2461L100.258 106.312ZM102.425 98.2461L102.199 96.3594H103.656L107.374 106.312H105.084L102.425 98.2461ZM105.016 104.33H99.7385V102.594H105.016V104.33ZM110.341 100.775L112.344 96.3594H114.682L111.435 102.71V106.312H109.254V102.71L106 96.3594H108.345L110.341 100.775Z" fill="white"/>
<path d="M100 199.812C154.952 199.812 199.5 155.265 199.5 100.312C199.5 45.3602 154.952 0.8125 100 0.8125C45.0477 0.8125 0.5 45.3602 0.5 100.312C0.5 155.265 45.0477 199.812 100 199.812Z" stroke="white"/>
<path d="M125.759 110.648L144.335 92.0727" stroke="white"/>
<path d="M131.133 92.273H144.268V105.408" stroke="white"/>
</g>
<defs>
<clipPath id="clip0_5_122">
<rect width="200" height="200" fill="white" transform="translate(0 0.3125)"/>
</clipPath>
</defs>
</svg>
